<svg xmlns="http://www.w3.org/2000/svg" xmlns:xlink="http://www.w3.org/1999/xlink" viewBox="0 0 1367 769"><defs><style>.cls-1{fill:url(#linear-gradient);}</style><linearGradient id="linear-gradient" x1="1195.02" y1="99.79" x2="35.52" y2="745.16" gradientUnits="userSpaceOnUse"><stop offset="0" stop-color="#2aa9ff"/><stop offset="1" stop-color="#3fffec"/></linearGradient></defs><title>practice</title><g id="Layer_2" data-name="Layer 2"><g id="Layer_1-2" data-name="Layer 1"><path class="cls-1" d="M227,672c8,2.12,16.05,4.55,25,5.16,14.38,1,28.07-2.84,41.28-5.87,54.67-12.53,120.12-12.44,174.66.22,12.68,3,25.59,6.63,39.53,6.25,11.58-.32,22-3.4,32.42-6,59.73-14.91,133.22-14.91,192.94,0,8,2,16.08,4.31,25,4.88,15.3,1,29.71-3.27,43.66-6.59,50-11.91,109.71-13,161.22-2.82,16.41,3.22,32.89,7.61,50.46,7,12.77-.44,24.51-3.49,36.39-5.89a393.25,393.25,0,0,1,74.14-7.81c117-1.13,214,50.83,243.28,108.44l-1-361.94S1177,221.47,899,221.47,683,0,683,0H0V681.35C63.48,658.08,144.73,650.31,227,672Z"/></g></g></svg>